<svg width="584" height="273" viewBox="0 0 584 273" fill="none" xmlns="http://www.w3.org/2000/svg">
<path d="M178.6 134.2C182.6 156.6 189.134 176.467 198.2 193.8C207 211.133 217.8 225.667 230.6 237.4C243.134 249.133 257.4 258.067 273.4 264.2C289.134 270.067 305.934 273 323.8 273C344.067 273 359.667 268.733 370.6 260.2C381.534 251.667 387 240.6 387 227C387 216.067 383.4 205.933 376.2 196.6C368.734 187.267 358.6 180.467 345.8 176.2C344.467 175.933 343.534 176.2 343 177C342.467 177.8 342.467 178.867 343 180.2C349.934 183.933 355.4 189.133 359.4 195.8C363.134 202.467 365 210.067 365 218.6C365 231.4 360.6 241.8 351.8 249.8C342.734 257.8 329.934 261.8 313.4 261.8C297.4 261.8 283.4 259.8 271.4 255.8C259.4 251.533 249.134 245 240.6 236.2C232.067 227.133 225 215.4 219.4 201C213.534 186.333 208.734 168.6 205 147.8C201.8 129.4 198.2 114.067 194.2 101.8C190.2 89.2668 185.934 78.8668 181.4 70.6001C176.867 62.3335 172.067 55.8001 167 51.0001C161.667 46.2001 156.067 42.3334 150.2 39.4001C157.134 36.7334 165.267 34.6001 174.6 33.0001C183.934 31.1334 194.2 30.2001 205.4 30.2001C221.934 30.2001 236.334 33.0001 248.6 38.6001C260.867 43.9334 270.734 51.5334 278.2 61.4001C285.4 71.0001 290.2 82.4668 292.6 95.8001C295 108.867 294.6 123.133 291.4 138.6C291.667 139.933 292.334 140.867 293.4 141.4C294.467 141.667 295.267 141.267 295.8 140.2C299.534 123.667 299.8 107.8 296.6 92.6001C293.4 77.4001 287.267 64.0668 278.2 52.6001C268.867 41.1334 256.6 32.0668 241.4 25.4001C226.2 18.4668 208.334 15.0001 187.8 15.0001C176.867 15.0001 166.2 16.3334 155.8 19.0001C145.4 21.4001 136.067 24.3334 127.8 27.8001C126.734 29.4001 126.734 30.8668 127.8 32.2001C128.867 33.5334 131.534 35.0001 135.8 36.6001C141.4 39.0001 146.334 42.3334 150.6 46.6001C154.6 50.8668 158.2 56.7334 161.4 64.2001C164.6 71.6668 167.534 81.1334 170.2 92.6001C172.867 104.067 175.667 117.933 178.6 134.2ZM146.6 118.6C140.734 139.4 135 158.2 129.4 175C123.534 191.8 117.134 206.2 110.2 218.2C103 229.933 95.1335 239 86.6002 245.4C78.0669 251.533 68.0669 254.6 56.6002 254.6C50.4669 254.6 45.0002 253.133 40.2002 250.2C35.4002 247 31.5335 243 28.6002 238.2C27.8002 237.4 27.0002 237.533 26.2002 238.6C25.1335 239.4 24.8669 240.467 25.4002 241.8C30.2002 250.867 36.8669 258.333 45.4002 264.2C53.6669 270.067 63.0002 273 73.4002 273C85.6669 273 96.4669 269.4 105.8 262.2C115.134 254.733 123.534 244.733 131 232.2C138.2 219.667 144.6 205.133 150.2 188.6C155.534 172.067 160.467 154.6 165 136.2C165.267 134.867 165.4 133.667 165.4 132.6C165.134 131.267 164.334 129.933 163 128.6C151 113.133 138.6 98.4668 125.8 84.6001C112.734 70.7335 99.8002 58.7334 87.0002 48.6001C74.2002 38.2001 61.9335 30.0668 50.2002 24.2001C38.2002 18.0668 27.1335 15.0001 17.0002 15.0001C11.6669 15.0001 7.53354 17.0001 4.60021 21.0001C1.66687 25.0001 0.200195 29.8001 0.200195 35.4001C0.200195 39.1334 0.733538 43.5334 1.80022 48.6001C2.60023 53.6668 3.6669 58.0668 5.00023 61.8001C7.13355 63.1335 8.46688 62.7335 9.0002 60.6001C7.66688 54.2001 8.60022 48.7334 11.8002 44.2001C15.0002 39.4001 21.0002 37.0001 29.8002 37.0001C46.8669 37.0001 65.5335 44.2001 85.8002 58.6001C106.067 73.0001 126.334 93.0001 146.6 118.6Z" fill="#333333"/>
<path d="M580 242.6C580.534 242.067 581.334 241.8 582.4 241.8C583.734 241.8 584.134 242.467 583.6 243.8C578 252.867 571.467 260.067 564 265.4C556.534 270.467 548.534 273 540 273C528.267 273 518.267 269.667 510 263C501.734 256.067 494.534 247 488.4 235.8C482.534 224.333 477.6 211.133 473.6 196.2C469.6 181.267 465.867 165.667 462.4 149.4C462.4 147.533 462.934 146.467 464 146.2C465.334 145.4 467.734 144.6 471.2 143.8C474.934 142.733 478.267 141.667 481.2 140.6C482 140.333 483.2 140.467 484.8 141C486.667 141.267 488.8 141.667 491.2 142.2C493.867 142.467 496.934 142.733 500.4 143C503.867 143 507.867 142.467 512.4 141.4C523.867 138.733 532.8 132.867 539.2 123.8C545.6 114.467 548.8 101.933 548.8 86.2001C548.8 78.4668 547.467 71.1334 544.8 64.2001C542.4 57.2668 538.667 51.2668 533.6 46.2001C528.8 40.8668 522.667 36.6001 515.2 33.4001C508 29.9334 499.467 27.8001 489.6 27.0001C482.667 35.8001 476.4 46.7334 470.8 59.8001C465.467 72.8668 460.534 87.9334 456 105C448 134.333 438.667 159.667 428 181C417.6 202.067 406 219.4 393.2 233C380.4 246.6 366.534 256.733 351.6 263.4C336.667 269.8 321.067 273 304.8 273C286.4 273 272.934 268.867 264.4 260.6C256.134 252.067 252 241 252 227.4C252 215.133 255.467 204.333 262.4 195C269.6 185.667 278.267 179.133 288.4 175.4C291.067 174.333 291.867 175.267 290.8 178.2C275.334 186.467 267.6 198.733 267.6 215C267.6 228.067 271.734 238.6 280 246.6C288.267 254.333 300.667 258.2 317.2 258.2C330.534 258.2 342.134 256.733 352 253.8C362.134 250.6 371.334 244.333 379.6 235C387.867 225.4 395.6 211.8 402.8 194.2C410.267 176.6 418 153.267 426 124.2C438 79.9334 454.667 47.5334 476 27.0001C451.2 27.8001 429.867 32.6001 412 41.4001C394.4 49.9334 379.2 63.4001 366.4 81.8001C365.334 82.3334 364.4 82.3334 363.6 81.8001C362.8 81.2668 362.667 80.3335 363.2 79.0001C375.734 60.6001 392.534 45.8001 413.6 34.6001C434.667 23.1334 460.134 16.7334 490 15.4001C499.867 8.73344 510.8 3.8001 522.8 0.600098C524.134 0.600098 524.8 1.13343 524.8 2.2001C524.8 3.00011 524.134 3.66677 522.8 4.2001C515.6 6.06677 508.534 9.80011 501.6 15.4001C512.8 15.4001 522.8 17.1334 531.6 20.6001C540.4 24.0668 547.867 28.7334 554 34.6001C560.134 40.4668 564.8 47.1334 568 54.6001C571.2 62.0668 572.8 69.8001 572.8 77.8001C572.8 89.0001 570.667 99.1334 566.4 108.2C562.4 117.267 556.534 125 548.8 131.4C541.334 137.8 532.134 142.6 521.2 145.8C510.534 148.733 498.534 149.533 485.2 148.2C489.2 169 493.6 186.467 498.4 200.6C503.2 214.467 508.4 225.533 514 233.8C519.867 242.067 526.267 247.933 533.2 251.4C540.4 254.867 548.134 256.6 556.4 256.6C565.467 256.6 573.334 251.933 580 242.6Z" fill="#333333"/>
</svg>
